<svg width="292" height="292" viewBox="0 0 292 292" fill="none" xmlns="http://www.w3.org/2000/svg">
<g opacity="0.2" clip-path="url(#clip0_2234_8803)" filter="url(#filter0_d_2234_8803)">
<path d="M146.097 0C67.5443 0 4 63.5443 4 142.097C4 220.456 67.5443 284.195 146.097 284.195C224.456 284.195 288.195 220.651 288.195 142.097C288 63.5443 224.456 0 146.097 0ZM146.097 275.034C72.6122 275.034 13.1613 215.583 13.1613 142.097C13.1613 68.6122 72.6122 9.16129 146.097 9.16129C219.583 9.16129 279.034 68.6122 279.034 142.097C279.034 215.388 219.388 275.034 146.097 275.034Z" fill="white"/>
<path d="M146.099 30.6025C84.6986 30.6025 34.7988 80.5023 34.7988 141.902C34.7988 203.303 84.6986 253.202 146.099 253.202C207.499 253.202 257.399 203.498 257.399 142.097C257.399 80.5023 207.499 30.6025 146.099 30.6025ZM146.099 236.244C94.0548 236.244 51.757 193.946 51.757 141.902C51.757 89.8585 94.0548 47.5607 146.099 47.5607C198.143 47.5607 240.441 89.8585 240.441 141.902C240.441 193.946 198.143 236.244 146.099 236.244Z" fill="white"/>
<path d="M146.098 79.5273C111.597 79.5273 83.5283 107.596 83.5283 142.097C83.5283 176.598 111.402 204.667 146.098 204.667C180.599 204.667 208.668 176.598 208.668 142.097C208.473 107.596 180.599 79.5273 146.098 79.5273ZM146.098 175.623C127.58 175.623 112.572 160.614 112.572 142.097C112.572 123.579 127.58 108.571 146.098 108.571C164.616 108.571 179.624 123.579 179.624 142.097C179.624 160.614 164.616 175.623 146.098 175.623Z" fill="white"/>
</g>
<defs>
<filter id="filter0_d_2234_8803" x="0" y="0" width="292" height="292" filterUnits="userSpaceOnUse" color-interpolation-filters="sRGB">
<feFlood flood-opacity="0" result="BackgroundImageFix"/>
<feColorMatrix in="SourceAlpha" type="matrix" values="0 0 0 0 0 0 0 0 0 0 0 0 0 0 0 0 0 0 127 0" result="hardAlpha"/>
<feOffset dy="4"/>
<feGaussianBlur stdDeviation="2"/>
<feComposite in2="hardAlpha" operator="out"/>
<feColorMatrix type="matrix" values="0 0 0 0 0 0 0 0 0 0 0 0 0 0 0 0 0 0 0.25 0"/>
<feBlend mode="normal" in2="BackgroundImageFix" result="effect1_dropShadow_2234_8803"/>
<feBlend mode="normal" in="SourceGraphic" in2="effect1_dropShadow_2234_8803" result="shape"/>
</filter>
<clipPath id="clip0_2234_8803">
<rect width="284" height="284" fill="white" transform="translate(4)"/>
</clipPath>
</defs>
</svg>
